Coordinates
version=1
nRows=12
nColumns=42
inDegrees=yes

Units are S.I. units (second, meters, Newtons, ...)
If the header above contains a line with 'inDegrees', this indicates whether rotational values are in degrees (yes) or radians (no).

endheader
time	pelvis_tilt	pelvis_list	pelvis_rotation	pelvis_tx	pelvis_ty	pelvis_tz	hip_flexion_r	hip_adduction_r	hip_rotation_r	knee_angle_r	knee_adduction_r	knee_angle_r_beta	ankle_angle_r	subtalar_angle_r	mtp_angle_r	hip_flexion_l	hip_adduction_l	hip_rotation_l	knee_angle_l	knee_adduction_l	knee_angle_l_beta	ankle_angle_l	subtalar_angle_l	mtp_angle_l	lumbar_extension	lumbar_bending	lumbar_rotation	arm_flex_r	arm_add_r	arm_rot_r	elbow_flex_r	pro_sup_r	wrist_flex_r	wrist_dev_r	arm_flex_l	arm_add_l	arm_rot_l	elbow_flex_l	pro_sup_l	wrist_flex_l	wrist_dev_l
      1.46000000	      1.67150539	     -5.40445872	      4.18208054	     -0.64418561	      0.95630318	      0.30795614	     14.80766335	      2.10537911	    -12.52352191	      8.32372578	      4.51056815	      0.14527642	     -1.16635445	      9.88066090	     -7.55763529	    -17.73231685	     -6.45730018	     -9.02398414	     17.10199949	     -0.73660966	      0.29848620	     12.10298892	     20.68779310	     -7.55763529	     -7.54280405	     10.70185821	     -7.92259678	    -10.75683425	    -10.43608764	     -1.13768064	     22.40747816	     90.00000001	      0.00000000	      0.00000000	      5.47879472	    -18.69811265	     19.46685979	     45.44645998	     90.00000001	      0.00000000	      0.00000000
      1.47000000	      1.50156233	     -5.65856293	      4.00567808	     -0.63280853	      0.95827491	      0.30905833	     14.15395469	      2.46467721	    -11.44931650	      8.03178584	      4.81413441	      0.14018111	     -1.20195424	      8.68054091	     -7.55370829	    -16.77946950	     -7.04867092	     -9.26021984	     19.58269763	     -0.72093006	      0.34178255	      9.95175513	     20.37601630	     -7.55370829	     -7.34875651	     11.06669308	     -7.58221347	    -10.50168890	    -10.44820866	     -1.68006804	     22.24589797	     90.00000001	      0.00000000	      0.00000000	      4.74095185	    -18.39075123	     19.33658267	     45.19669387	     90.00000001	      0.00000000	      0.00000000
      1.48000000	      1.49630067	     -5.67417025	      3.86055281	     -0.62136268	      0.96048931	      0.30992251	     13.41820944	      2.54242283	    -11.01898266	      8.05895630	      4.99482715	      0.14065532	     -0.76254120	      8.85460687	     -7.55274168	    -15.92565674	     -7.34948015	     -9.07862330	     22.09502747	     -0.69947961	      0.38563098	      7.30052182	     19.53136876	     -7.55274168	     -7.33830572	     11.18168581	     -7.23024889	    -10.34037173	    -10.53921020	     -1.72127617	     22.22970904	     90.00000001	      0.00000000	      0.00000000	      4.02078120	    -18.12605949	     19.38786371	     45.00305520	     90.00000001	      0.00000000	      0.00000000
      1.49000000	      1.18743340	     -5.82866878	      3.63871299	     -0.61017350	      0.96231923	      0.31119740	     12.97567305	      2.89442159	    -10.42941673	      7.90932062	      4.99614508	      0.13804369	     -0.56631405	      8.74847315	     -7.55083126	    -14.46408891	     -7.91425895	     -8.83933569	     25.07209231	     -0.44938428	      0.43759056	      4.62863786	     18.15669828	     -7.55083126	     -6.99954777	     11.38731231	     -6.82828628	    -10.11795909	    -10.59947072	     -1.91837149	     22.10559547	     90.00000001	      0.00000000	      0.00000000	      3.26629662	    -17.81598841	     19.30355030	     44.74893655	     90.00000001	      0.00000000	      0.00000000
      1.50000000	      1.18663963	     -5.82370849	      3.49157717	     -0.59906860	      0.96440120	      0.31204689	     12.11740618	      2.98148854	    -10.08537387	      7.67020123	      5.18593411	      0.13387027	     -0.07874205	      8.91001067	     -7.54969542	    -13.19981004	     -8.18654042	     -8.60032618	     28.04163689	     -0.51271654	      0.48941889	      1.59611165	     16.89825067	     -7.54969542	     -7.03257005	     11.46083371	     -6.44452100	     -9.91299653	    -10.69286239	     -2.01990317	     22.21935358	     90.00000001	      0.00000000	      0.00000000	      2.56282482	    -17.54202104	     19.30359498	     44.54518734	     90.00000001	      0.00000000	      0.00000000
      1.51000000	      0.95853552	     -5.89881213	      3.27562676	     -0.58829394	      0.96604676	      0.31328853	     11.52077028	      3.27781994	     -9.65861509	      7.35843968	      5.16549390	      0.12842900	      0.15655348	      8.86696865	     -7.54782068	    -11.52477420	     -8.62936465	     -8.02452572	     31.23110047	     -0.22835459	      0.54508553	     -1.21398081	     14.74655655	     -7.54782068	     -6.84277138	     11.56416113	     -6.01342926	     -9.66641157	    -10.76772176	     -2.17974817	     22.29887556	     90.00000001	      0.00000000	      0.00000000	      1.86233297	    -17.26930020	     19.18977873	     44.29342766	     90.00000001	      0.00000000	      0.00000000
      1.52000000	      1.03586336	     -5.80912403	      3.12052905	     -0.57753364	      0.96780559	      0.31420618	     10.53761270	      3.33804545	     -9.45167172	      6.99687341	      5.23787615	      0.12211848	      0.63779217	      9.19087042	     -7.54679022	    -10.09516772	     -8.81891734	     -7.70684184	     34.31451907	     -0.25261046	      0.59890134	     -3.83714590	     13.11193366	     -7.54679022	     -6.99869086	     11.50982805	     -5.61596534	     -9.42882999	    -10.89056560	     -2.22540751	     22.57172934	     90.00000001	      0.00000000	      0.00000000	      1.21230139	    -17.05769044	     19.14778166	     44.10240562	     90.00000001	      0.00000000	      0.00000000
      1.53000000	      0.93031224	     -5.82885225	      2.92420796	     -0.56710337	      0.96910728	      0.31534259	      9.80497690	      3.55976727	     -9.28922649	      6.65269750	      5.20946401	      0.11611148	      0.97844204	      9.55947891	     -7.54555682	     -8.35744543	     -9.15667348	     -7.18371385	     37.46954273	     -0.06620878	      0.65396689	     -6.02640636	     10.68721329	     -7.54555682	     -6.98533676	     11.53883623	     -5.18105838	     -9.16242185	    -11.02189296	     -2.20325316	     22.86981589	     90.00000001	      0.00000000	      0.00000000	      0.56347104	    -16.82420899	     19.04122537	     43.89683395	     90.00000001	      0.00000000	      0.00000000
      1.54000000	      0.84939925	     -5.79783668	      2.76289845	     -0.55701535	      0.97026037	      0.31651818	      9.10920193	      3.73297441	     -9.26503614	      6.39962517	      5.13575619	      0.11169453	      1.31727228	      9.89884924	     -7.54386490	     -6.59081924	     -9.40997613	     -6.39622419	     40.52145155	      0.23742819	      0.70723275	     -7.56211394	      7.71535932	     -7.54386490	     -7.02783071	     11.48521568	     -4.74464832	     -8.88095330	    -11.15576687	     -2.04437949	     23.21219096	     90.00000001	      0.00000000	      0.00000000	      0.00773990	    -16.60363865	     18.83939035	     43.64563818	     90.00000001	      0.00000000	      0.00000000
      1.55000000	      0.92236780	     -5.69153386	      2.62565704	     -0.54703177	      0.97138175	      0.31749558	      8.26606516	      3.75895394	     -9.28985963	      6.21192047	      5.16135363	      0.10841847	      1.80218379	     10.45031846	     -7.54204458	     -4.95176594	     -9.53192392	     -5.99757527	     43.40888464	      0.24257311	      0.75762796	     -8.49935096	      5.16201165	     -7.54204458	     -7.24679199	     11.35213516	     -4.36278232	     -8.55404615	    -11.32964550	     -1.77334097	     23.66045657	     90.00000001	      0.00000000	      0.00000000	     -0.52588560	    -16.40867520	     18.67249991	     43.37816877	     90.00000001	      0.00000000	      0.00000000
      1.56000000	      1.36632528	     -5.36997629	      2.39715563	     -0.53716994	      0.97279765	      0.31862991	      7.07321500	      3.51906685	     -9.26345140	      6.15305509	      5.30587289	      0.10739107	      2.23321891	     10.80008685	     -7.54155629	     -3.82425715	     -9.41311035	     -6.08297813	     45.88927125	     -0.01261190	      0.80091887	     -8.47181869	      4.36053613	     -7.54155629	     -7.94847965	     10.94413028	     -3.80540382	     -8.13062258	    -11.41134512	     -1.71656139	     24.05374584	     90.00000001	      0.00000000	      0.00000000	     -0.91778976	    -16.30527784	     18.61043790	     43.15068111	     90.00000001	      0.00000000	      0.00000000
      1.57000000	      1.15836842	     -5.38012371	      2.36656830	     -0.52753156	      0.97329586	      0.31946741	      6.60748491	      3.65730441	     -9.42661067	      6.03519384	      5.20928887	      0.10533400	      2.96137285	     11.78314505	     -7.53848389	     -1.70125425	     -9.62063383	     -6.02801718	     48.60895370	     -0.32212528	      0.84838629	     -8.68288436	      0.98034702	     -7.53848389	     -7.82407238	     10.91999020	     -3.62377838	     -7.82784295	    -11.73694274	     -0.87498056	     24.69307935	     90.00000001	      0.00000000	      0.00000000	     -1.47133461	    -16.07232068	     18.35811260	     42.73790402	     90.00000001	      0.00000000	      0.00000000
